<svg xmlns="http://www.w3.org/2000/svg" width="31" height="31" viewBox="0 0 31 31"><g><g><g><path fill="#ffb548" d="M1.41 20.172c.742.417 3.484 1.553 3.633 1.6l2.014.664c.906 2.676 3.826 4.11 6.514 3.206a5.121 5.121 0 0 0 3.404-3.87l5.792-4.116c3.409-.322 5.908-3.326 5.588-6.715-.3-3.133-2.93-5.54-6.102-5.574-3.394.005-6.155 2.72-6.198 6.09l-3.477 4.22a4.932 4.932 0 0 0-3.332.704l-3.825-1.724c-.16-.072-3.152-1.16-3.297-1.068-.053.034-.146.06-.244.088-.179.05-.373.106-.373.221l.4 6.273a5.894 5.894 0 0 0-.541-.14A14.94 14.94 0 0 1 .71 15.64c0-8.284 6.744-15 15.063-15s15.063 6.716 15.063 15c0 8.284-6.744 15-15.063 15A15.063 15.063 0 0 1 1.41 20.172zm23.943-8.644a3.09 3.09 0 0 1-3.1 3.081 3.09 3.09 0 0 1-3.099-3.08 3.09 3.09 0 0 1 3.1-3.081 3.09 3.09 0 0 1 3.099 3.08zm-3.099-2.055c-1.142 0-2.068.92-2.068 2.055 0 1.136.926 2.056 2.068 2.056s2.068-.92 2.068-2.055a2.062 2.062 0 0 0-2.068-2.056zM10.58 23.543a.512.512 0 0 1-.238-.688.518.518 0 0 1 .693-.236 2.07 2.07 0 0 0 2.784-.88 2.045 2.045 0 0 0-.886-2.769c-.034-.019-.068-.033-.102-.048a.512.512 0 0 1-.237-.688.518.518 0 0 1 .693-.236 3.074 3.074 0 0 1-.33 5.685c-.339.11-.682.168-1.036.168-.465 0-.925-.106-1.341-.308z"/></g></g></g></svg>