<svg xmlns="http://www.w3.org/2000/svg" width="31" height="31" viewBox="0 0 31 31"><g><g><g><path fill="#ffb548" d="M10.547 3.283a22.246 22.246 0 0 1 4.559 2.444c.164.112.352.17.54.17a.964.964 0 0 0 .54-.17 22.273 22.273 0 0 1 4.558-2.45.935.935 0 0 0 .593-.879.925.925 0 0 0-.604-.867C17.564.33 13.727.33 10.564 1.531a.944.944 0 0 0-.018 1.752z"/></g><g><path fill="#ffb548" d="M24.155 3.296a.94.94 0 0 0-1.004-.04A40.988 40.988 0 0 0 18.1 6.69a.942.942 0 0 0-.064 1.412c3.32 3.159 7.921 12.846 8.977 17.3-2.288-3.868-7.393-12.97-10.732-16.081a.942.942 0 0 0-1.279 0c-3.344 3.112-8.431 12.22-10.72 16.093 1.056-4.454 5.645-14.153 8.966-17.312a.934.934 0 0 0-.059-1.412 41.437 41.437 0 0 0-5.052-3.435.941.941 0 0 0-1.003.041A14.992 14.992 0 0 0 .62 15.64c0 3.598 1.297 7.067 3.661 9.775a14.897 14.897 0 0 0 11.36 5.228c4.395 0 8.537-1.905 11.371-5.234a14.848 14.848 0 0 0 3.65-9.77c0-4.922-2.435-9.534-6.507-12.342z"/></g></g></g></svg>